<svg width="32" height="72" viewBox="0 0 32 72" fill="none" xmlns="http://www.w3.org/2000/svg">
<path d="M30.52 22.6369C30.52 19.0779 29.2302 15.8149 27.096 13.2867V7.04229C27.096 6.43148 26.8585 5.84374 26.4334 5.4052C23.6693 2.54647 19.9644 0.971863 16.0012 0.971863C7.99584 0.971863 1.48292 7.48478 1.48292 15.4896C1.48292 15.9394 1.50825 16.4032 1.56004 16.8913C1.50769 17.0861 1.4801 17.291 1.4801 17.4982V61.648C1.4801 62.4896 1.92935 63.2677 2.65838 63.6888L14.8229 70.7128C15.1871 70.9228 15.5941 71.0281 16.0012 71.0281C16.4082 71.0281 16.8147 70.9228 17.1795 70.7128L25.9178 65.667C26.6468 65.2459 27.096 64.4673 27.096 63.6263V31.9872C29.2302 29.4589 30.52 26.1965 30.52 22.6369Z" fill="white"/>
<path d="M30.3173 25.0087C29.8827 22.3785 28.7455 19.9837 27.096 18.0302V13.2867V11.7869C27.096 11.1744 26.8585 10.5878 26.4334 10.1487C23.6693 7.29 19.9644 5.71539 16.0012 5.71539C7.99583 5.71539 1.48292 12.2289 1.48292 20.2336C1.48292 20.6835 1.50825 21.1473 1.56004 21.6343C1.50769 21.8308 1.4801 22.0346 1.4801 22.2423V61.6486C1.4801 62.4902 1.92935 63.2682 2.65838 63.6893L14.8229 70.7134C15.1871 70.9234 15.5941 71.0287 16.0012 71.0287C16.4082 71.0287 16.8146 70.9234 17.1794 70.7134L25.9178 65.6676C26.6468 65.2465 27.096 64.4679 27.096 63.6268V36.7307V31.9872C28.7455 30.0331 29.8821 27.6377 30.3173 25.0087Z" fill="#D3EFF4"/>
<path d="M16.0011 71.8725C15.4404 71.8725 14.887 71.7245 14.4012 71.4447L2.23612 64.4201C1.24869 63.8498 0.63562 62.788 0.63562 61.648V17.4988C0.63562 17.2753 0.659265 17.0529 0.705428 16.835C0.660391 16.37 0.638436 15.9287 0.638436 15.4901C0.638436 7.01922 7.53023 0.127991 16.0011 0.127991C20.1952 0.127991 24.1157 1.7938 27.0403 4.81916C27.6201 5.41759 27.9405 6.20799 27.9405 7.04343V12.9832C30.1506 15.7125 31.3644 19.1286 31.3644 22.6375C31.3644 26.1464 30.1506 29.5625 27.9405 32.2918V63.6274C27.9405 64.7668 27.3274 65.8291 26.3399 66.3994L17.6016 71.4453C17.1147 71.7245 16.5618 71.8725 16.0011 71.8725ZM16.0011 1.81632C8.46137 1.81632 2.32732 7.95036 2.32732 15.4896C2.32732 15.9135 2.35097 16.343 2.39938 16.803C2.41064 16.906 2.4022 17.0107 2.37574 17.1103C2.3414 17.2364 2.32451 17.367 2.32451 17.4982V61.648C2.32451 62.1862 2.61443 62.6884 3.08057 62.9575L15.2451 69.9816C15.7033 70.2456 16.2978 70.2462 16.7578 69.981L25.4955 64.9357C25.9616 64.6661 26.2516 64.1645 26.2516 63.6263V31.9872C26.2516 31.7879 26.3219 31.5948 26.4509 31.4422C28.5304 28.9787 29.6761 25.8515 29.6761 22.6364C29.6761 19.4213 28.531 16.294 26.4509 13.8305C26.3219 13.6779 26.2516 13.4848 26.2516 13.2856V7.0423C26.2516 6.64823 26.1007 6.27555 25.8271 5.99238C23.2228 3.29972 19.7336 1.81632 16.0011 1.81632Z" fill="#33363A"/>
<path d="M16 30.3006C20.4731 30.3006 24.0993 26.6744 24.0993 22.2012C24.0993 17.7281 20.4731 14.1019 16 14.1019C11.5268 14.1019 7.90063 17.7281 7.90063 22.2012C7.90063 26.6744 11.5268 30.3006 16 30.3006Z" fill="#0086FF"/>
<path d="M7.90063 22.2012C7.90063 26.674 11.5267 30.3006 16 30.3006C20.4733 30.3006 24.0993 26.6745 24.0993 22.2012H7.90063Z" fill="white"/>
<path d="M16 28.4051C20.4727 28.4051 24.0993 25.6274 24.0993 22.2012H7.90063C7.90063 25.6274 11.5272 28.4051 16 28.4051Z" fill="#D8E5EA"/>
<path d="M15.9999 31.145C11.0684 31.145 7.05615 27.1328 7.05615 22.2012C7.05615 17.2697 11.0684 13.258 15.9999 13.258C20.9315 13.258 24.9437 17.2702 24.9437 22.2018C24.9437 27.1333 20.9315 31.145 15.9999 31.145ZM15.9999 14.9469C12.0001 14.9469 8.74504 18.2014 8.74504 22.2018C8.74504 26.2022 12.0001 29.4561 15.9999 29.4561C19.9998 29.4561 23.2548 26.2016 23.2548 22.2012C23.2548 18.2008 19.9998 14.9469 15.9999 14.9469Z" fill="#33363A"/>
<path d="M24.0993 23.0456H7.9006C7.43446 23.0456 7.05615 22.6679 7.05615 22.2012C7.05615 21.7345 7.43446 21.3568 7.9006 21.3568H24.0987C24.5649 21.3568 24.9432 21.7345 24.9432 22.2012C24.9432 22.6679 24.5654 23.0456 24.0993 23.0456Z" fill="#33363A"/>
<path d="M15.9999 25.807C17.4789 25.807 18.6779 24.608 18.6779 23.129C18.6779 21.65 17.4789 20.451 15.9999 20.451C14.5209 20.451 13.3219 21.65 13.3219 23.129C13.3219 24.608 14.5209 25.807 15.9999 25.807Z" fill="#A7BBC1"/>
<path d="M15.9999 24.8967C17.4789 24.8967 18.6779 23.6978 18.6779 22.2187C18.6779 20.7397 17.4789 19.5407 15.9999 19.5407C14.5209 19.5407 13.3219 20.7397 13.3219 22.2187C13.3219 23.6978 14.5209 24.8967 15.9999 24.8967Z" fill="white"/>
<path d="M14.1066 24.1125C13.0612 23.0671 13.0612 21.3703 14.1066 20.3243C15.152 19.2783 16.8476 19.2789 17.8936 20.3243" fill="#D8E5EA"/>
<path d="M15.9999 25.7406C15.0592 25.7406 14.1748 25.3747 13.5093 24.7098C12.1357 23.3362 12.1357 21.1012 13.5093 19.7276C14.1748 19.0622 15.0592 18.6957 15.9999 18.6957C16.9406 18.6957 17.825 19.0622 18.4904 19.7276C19.8641 21.1012 19.8641 23.3362 18.4904 24.7098C17.825 25.3741 16.9406 25.7406 15.9999 25.7406ZM15.9999 20.3846C15.5101 20.3846 15.0496 20.5754 14.7034 20.9216C13.9879 21.6372 13.9879 22.8002 14.7034 23.5152C15.3958 24.2071 16.6034 24.2071 17.2958 23.5152C18.0114 22.8002 18.0114 21.6372 17.2958 20.9216C16.9502 20.5754 16.4897 20.3846 15.9999 20.3846Z" fill="#33363A"/>
<path d="M16 35.9859C15.5338 35.9859 15.1555 35.6081 15.1555 35.1415V31.1652C15.1555 30.6985 15.5338 30.3208 16 30.3208C16.4661 30.3208 16.8444 30.6985 16.8444 31.1652V35.1415C16.8444 35.6076 16.4661 35.9859 16 35.9859Z" fill="#33363A"/>
<path d="M16 14.0822C15.5338 14.0822 15.1555 13.7044 15.1555 13.2377V9.2615C15.1555 8.7948 15.5338 8.41705 16 8.41705C16.4661 8.41705 16.8444 8.7948 16.8444 9.2615V13.2377C16.8444 13.7044 16.4661 14.0822 16 14.0822Z" fill="#33363A"/>
<path d="M7.56856 49.6017C6.39365 49.6017 5.43774 48.6458 5.43774 47.4709C5.43774 46.296 6.39365 45.3401 7.56856 45.3401C8.74346 45.3401 9.69937 46.296 9.69937 47.4709C9.69937 48.6458 8.74346 49.6017 7.56856 49.6017ZM7.56856 47.029C7.32479 47.029 7.12663 47.2271 7.12663 47.4709C7.12663 47.7147 7.32536 47.9128 7.56856 47.9128C7.81176 47.9128 8.01048 47.7147 8.01048 47.4709C8.01048 47.2271 7.81232 47.029 7.56856 47.029Z" fill="#33363A"/>
<path d="M8.85542 54.687H6.28268C5.81654 54.687 5.43823 54.3092 5.43823 53.8426C5.43823 53.3759 5.81654 52.9981 6.28268 52.9981H8.85542C9.32155 52.9981 9.69986 53.3759 9.69986 53.8426C9.69986 54.3092 9.32155 54.687 8.85542 54.687Z" fill="#33363A"/>
<path d="M8.85542 58.5163H6.28268C5.81654 58.5163 5.43823 58.1385 5.43823 57.6718C5.43823 57.2051 5.81654 56.8274 6.28268 56.8274H8.85542C9.32155 56.8274 9.69986 57.2051 9.69986 57.6718C9.69986 58.1385 9.32155 58.5163 8.85542 58.5163Z" fill="#33363A"/>
</svg>
