<svg width="27" height="26" viewBox="0 0 27 26" fill="none" xmlns="http://www.w3.org/2000/svg">
<path d="M16.3692 19.2754C13.7965 19.2754 11.3694 18.2801 9.54913 16.4594C7.72883 14.6387 6.73373 12.211 6.73373 9.63772C6.73373 7.06443 7.72883 4.63679 9.54913 2.81606C11.3694 0.995331 13.7965 0 16.3692 0C18.9419 0 21.369 0.995331 23.1893 2.81606C26.9512 6.5789 26.9512 12.6965 23.1893 16.4594C21.369 18.2801 18.9419 19.2754 16.3692 19.2754ZM16.3692 2.81606C14.5489 2.81606 12.8257 3.52007 11.5393 4.80672C8.86955 7.47712 8.86955 11.7983 11.5393 14.4687C12.8257 15.7554 14.5489 16.4594 16.3692 16.4594C18.1895 16.4594 19.9127 15.7554 21.1991 14.4687C22.4854 13.1821 23.1893 11.4584 23.1893 9.63772C23.1893 7.81699 22.4854 6.09337 21.1991 4.80672C19.9127 3.52007 18.1895 2.81606 16.3692 2.81606ZM0.0107422 23.3539L7.24341 16.1195C7.60748 16.6293 8.02008 17.1148 8.45695 17.5518C8.89382 17.9888 9.37924 18.4015 9.88892 18.7656L2.65625 26L0.0107422 23.3539Z" fill="#ffffff"/>
</svg>
